<?xml version="1.0" encoding="UTF-8" standalone="no"?>
<!-- Created with Inkscape (http://www.inkscape.org/) -->

<svg
   xmlns:dc="http://purl.org/dc/elements/1.1/"
   xmlns:cc="http://creativecommons.org/ns#"
   xmlns:rdf="http://www.w3.org/1999/02/22-rdf-syntax-ns#"
   xmlns:svg="http://www.w3.org/2000/svg"
   xmlns="http://www.w3.org/2000/svg"
   xmlns:sodipodi="http://sodipodi.sourceforge.net/DTD/sodipodi-0.dtd"
   xmlns:inkscape="http://www.inkscape.org/namespaces/inkscape"
   width="75"
   height="75"
   viewBox="0 0 19.84375 19.84375"
   version="1.1"
   id="svg8"
   inkscape:version="0.92.3 (2405546, 2018-03-11)"
   sodipodi:docname="drawing4.svg">
  <defs
     id="defs2" />
  <sodipodi:namedview
     id="base"
     pagecolor="#ffffff"
     bordercolor="#666666"
     borderopacity="1.0"
     inkscape:pageopacity="0.0"
     inkscape:pageshadow="2"
     inkscape:zoom="1.4"
     inkscape:cx="344.89414"
     inkscape:cy="77.857143"
     inkscape:document-units="mm"
     inkscape:current-layer="layer1"
     showgrid="false"
     units="px"
     inkscape:window-width="1366"
     inkscape:window-height="705"
     inkscape:window-x="-8"
     inkscape:window-y="-8"
     inkscape:window-maximized="1" />
  <metadata
     id="metadata5">
    <rdf:RDF>
      <cc:Work
         rdf:about="">
        <dc:format>image/svg+xml</dc:format>
        <dc:type
           rdf:resource="http://purl.org/dc/dcmitype/StillImage" />
        <dc:title></dc:title>
      </cc:Work>
    </rdf:RDF>
  </metadata>
  <g
     inkscape:label="Layer 1"
     inkscape:groupmode="layer"
     id="layer1"
     transform="translate(0,-277.15624)">
    <g
       id="layer1-2"
       inkscape:label="Layer 1"
       transform="matrix(0.11296065,0,0,0.12202003,-1.190912,272.25963)">
      <path
         transform="matrix(1.0339267,0.05757067,-0.05962275,0.99834143,10.277496,-4.6094843)"
         inkscape:transform-center-y="-6.8303104"
         inkscape:transform-center-x="1.6043093"
         d="M 155.49661,191.61603 101.70698,172.15492 53.782258,203.3844 55.668964,146.21361 11.158414,110.28493 66.11409,94.412547 86.52978,40.977925 l 32.07777,47.361119 57.12814,2.904268 -35.13052,45.143158 z"
         inkscape:randomized="0"
         inkscape:rounded="0"
         inkscape:flatsided="false"
         sodipodi:arg2="1.4556083"
         sodipodi:arg1="0.82728981"
         sodipodi:r2="44.951488"
         sodipodi:r1="87.100594"
         sodipodi:cy="127.50132"
         sodipodi:cx="96.54055"
         sodipodi:sides="5"
         id="path5026"
         style="opacity:0.35100002;fill:#7137c8;stroke-width:0.26458332"
         sodipodi:type="star" />
      <path
         transform="matrix(1.2144694,0,0,0.98244268,-14.876099,20.633402)"
         inkscape:transform-center-y="-5.5858513"
         inkscape:transform-center-x="1.1103452"
         d="M 137.07284,164.34886 95.856595,145.97917 56.373681,167.82691 61.10777,122.95139 28.128444,92.152226 72.270518,82.787313 91.371088,41.904646 113.9183,80.992336 158.70243,86.524619 128.4953,120.04705 Z"
         inkscape:randomized="0"
         inkscape:rounded="0"
         inkscape:flatsided="false"
         sodipodi:arg2="1.527724"
         sodipodi:arg1="0.89940546"
         sodipodi:r2="35.460609"
         sodipodi:r1="68.710533"
         sodipodi:cy="110.55145"
         sodipodi:cx="94.329697"
         sodipodi:sides="5"
         id="path5020"
         style="opacity:0.35100002;fill:#441650;stroke-width:0.26458332"
         sodipodi:type="star" />
      <path
         inkscape:connector-curvature="0"
         d="m 33.290466,113.52909 c -0.01376,0.004 -0.02759,0.007 -0.04134,0.0109 -0.219117,0.17727 -0.437915,0.35498 -0.654741,0.53537 0.157271,-0.0592 0.284242,-0.11086 0.433049,-0.16795 z"
         style="fill:#440055;stroke-width:0.26458332"
         id="path3753" />
      <path
         inkscape:connector-curvature="0"
         d="m 152.89402,88.235031 c -0.30321,-0.03479 -1.61537,0.951744 -4.43384,3.273703 -6.32668,1.712365 -7.1181,0.890868 -6.57789,3.280937 0.1,0.12247 0.18151,0.289292 0.2191,0.506944 h -5.2e-4 c 0.0795,0.460523 0.36286,0.675457 0.59634,1.047483 0.10943,0.174379 0.28952,0.535932 0.38758,0.72812 0.0951,0.192257 0.19886,0.380172 0.28473,0.576709 0.92049,2.106851 -0.2524,-0.418742 0.62839,1.531173 0.19703,0.43619 0.44488,0.8494 0.62218,1.29398 0.11014,0.27616 0.18875,0.56351 0.28319,0.84542 0.1028,0.32558 0.21063,0.6496 0.30851,0.97669 0.0997,0.3333 0.17571,0.6742 0.28474,1.00459 0.17908,0.54272 0.42742,1.06035 0.61288,1.60093 0.20276,0.59102 0.18418,0.59738 0.28939,1.16738 0.0306,0.13409 0.0509,0.27076 0.092,0.40204 0.0344,0.11017 0.0916,0.21225 0.13333,0.31987 0.0475,0.12271 0.26397,0.71567 0.30334,0.86093 0.36964,1.36376 -0.15472,-0.29739 0.29765,1.08366 0.0748,0.1702 0.14944,0.34036 0.22428,0.51056 0.0665,0.15659 0.13105,0.3145 0.19947,0.47026 0.056,0.12741 0.12642,0.24858 0.17415,0.3793 0.0474,0.12974 0.0674,0.26824 0.11059,0.39946 0.0394,0.12004 0.10819,0.22839 0.16329,0.3421 0.14007,0.3787 0.14948,0.78104 0.2341,1.17047 0.0371,0.17062 0.005,0.11228 0.0656,0.19999 0.0619,0.20604 0.0896,0.25059 0.0997,0.46509 0.003,0.067 -0.0141,0.1341 -0.009,0.20102 7.9e-4,0.0101 0.0188,-0.0303 0.0222,-0.0207 0.0237,0.0667 0.0256,0.13949 0.0444,0.20774 0.0155,0.0562 0.0389,0.1099 0.0584,0.16485 0.0489,0.12334 0.0679,0.24745 0.0775,0.37207 0.28578,0.69697 0.53078,1.41068 0.71159,2.14974 0.50202,1.92686 0.93284,3.81748 0.73742,5.83014 -0.011,1.75582 -0.011,3.51155 -0.002,5.26737 -0.003,1.64524 2.1e-4,3.29533 -0.17828,4.93304 -0.20157,1.42204 -0.56642,2.78933 -1.23093,4.07262 -0.656,1.20114 -1.5961,2.22245 -2.53318,3.21169 -1.00805,0.96186 -2.13317,1.78985 -3.19206,2.69441 -1.23612,1.14337 -2.54694,2.19793 -3.78322,3.34139 -1.7716,1.60433 -3.49579,3.27064 -5.46014,4.6452 -1.11121,0.77513 -1.30542,0.93063 -2.47375,1.66088 -0.0175,0.0109 -0.0594,0.0356 -0.0796,0.0481 -1.65758,0.94127 -3.31525,1.88234 -4.97282,2.8236 l 10.44174,-4.08554 c -20.84757,11.04242 -9.7259,5.73477 -7.27708,4.331 5.00026,-2.86635 10.02247,-5.45403 14.64355,-8.83977 1.98568,-1.40997 3.61465,-3.23937 5.49889,-4.76508 0.76029,-0.87237 1.79136,-1.44119 2.61483,-2.24379 1.11371,-1.08528 -0.047,-0.20271 1.22008,-1.08211 1.10488,-0.91011 2.21456,-1.76498 3.16983,-2.83652 0.97099,-1.09315 1.88137,-2.1823 2.37298,-3.57445 0.6888,-1.36256 0.92596,-2.86298 1.07384,-4.3646 0.1217,-1.67645 0.0957,-3.3597 0.0987,-5.03948 0.004,-1.4238 -0.003,-2.84732 -0.0134,-4.27106 0.20434,0.21743 0.40754,0.43631 0.61237,0.65319 2.55499,2.78025 5.42494,5.24081 8.12146,7.87497 0.99755,0.94731 2.0559,1.8495 3.22978,2.5709 l 9.39064,-6.13037 c -1.1793,-0.55361 -2.16974,-1.44448 -3.17241,-2.26188 -2.77094,-2.57509 -5.76694,-4.91238 -8.3721,-7.66775 -4.49589,-4.55456 -8.78989,-9.33226 -12.39666,-14.634763 -1.44578,-2.105461 -2.90822,-4.192685 -4.30465,-6.330878 -0.27241,-0.417118 -0.35146,-1.404054 -0.82424,-1.246955 -0.12088,0.04017 -0.23361,0.07601 -0.35191,0.114723 -0.0128,-0.05096 -0.0271,-0.101269 -0.0393,-0.152445 0.72007,-1.220155 1.20002,-2.026663 0.92449,-2.058273 z m -9.2227,12.628689 c 0.0232,0.0896 0.0466,0.1791 0.0698,0.26871 0.0147,0.0156 0.0293,0.031 0.0439,0.0481 -0.028,-0.0876 -0.0554,-0.17553 -0.0894,-0.26096 -0.008,-0.0189 -0.0165,-0.0371 -0.0243,-0.0558 z m -5.66683,46.70464 c 0.39788,-0.22862 -0.7913,0.46477 -1.18701,0.69712 -0.41376,0.23495 -0.82751,0.46991 -1.24127,0.70486 0.80916,-0.46784 1.61787,-0.9363 2.42828,-1.40198 z"
         style="fill:#d40055;stroke-width:0.26458332"
         id="path3889" />
      <path
         inkscape:connector-curvature="0"
         d="m 174.16691,118.44148 c -1.57288,1.87283 -3.23609,3.66165 -4.96159,5.39372 -0.59397,0.52741 -1.09579,1.13883 -1.58888,1.75742 0,0 -10.31103,4.37271 -10.31103,4.37271 v 0 c 0.55628,-0.62159 0.98117,-1.32836 1.59891,-1.89678 1.79666,-1.60181 3.43065,-3.3824 4.95295,-5.24676 0,0 10.30964,-4.38031 10.30964,-4.38031 z"
         id="path3891"
         style="fill:#d40055;stroke-width:0.26458332" />
      <path
         inkscape:connector-curvature="0"
         d="m 25.048704,203.15254 c 2.593542,-3.62543 5.153058,-7.26833 7.828769,-10.83406 3.191986,-4.29674 6.85507,-8.13784 10.994593,-11.517 7.659452,-5.30203 15.824083,-9.88918 24.217606,-13.92745 5.404726,-2.50766 11.206647,-3.94835 16.965295,-5.37851 7.099273,-1.93424 14.216202,-3.74809 21.222543,-6.00144 1.21719,0.12988 15.35008,-6.74414 5.76684,-2.03472 0,0 9.40457,-3.64775 9.40457,-3.64775 v 0 c -4.73302,2.81028 -9.38044,5.77001 -14.19906,8.43086 -2.26012,1.24804 -6.7604,2.76881 -9.241999,3.66259 -7.087656,2.28356 -14.282164,4.17179 -21.471461,6.10648 -5.755095,1.46842 -11.540316,2.99321 -16.9022,5.60921 -0.797833,0.3899 -1.599258,0.77253 -2.393503,1.16968 -0.829053,0.41456 -3.253454,1.77041 -2.476201,1.26537 2.15619,-1.40105 4.408519,-2.64834 6.621052,-3.95861 0.856504,-0.50722 -1.701254,1.03404 -2.552874,1.54943 -0.854625,0.5172 -1.722575,1.01282 -2.56586,1.54831 -0.798156,0.50684 -1.571406,1.05187 -2.357107,1.5778 -1.538769,1.20852 -2.652046,2.02907 -4.081714,3.36386 -2.575232,2.40432 -4.779391,5.18321 -7.01321,7.89496 -2.585352,3.50557 -5.145095,7.0192 -7.55234,10.65214 0,0 -10.213739,4.46885 -10.213739,4.46885 z"
         id="path3893"
         style="fill:#d40055;stroke-width:0.26458332" />
      <path
         sodipodi:nodetypes="cscsccccccccccccccscscscsccccccsccccccccscsccccc"
         inkscape:connector-curvature="0"
         d="m 69.175196,121.86774 -2.466069,-0.14644 c -5.235185,-0.31088 -8.5779,1.20042 -10.954885,3.10162 -0.912776,0.73007 -1.781794,1.32705 -1.931149,1.32705 -0.149352,0 -1.528471,-0.57835 -3.06493,-1.28519 -1.536454,-0.70685 -3.644001,-1.53346 -4.683435,-1.8371 l -1.889805,-0.5519 -3.96875,2.77709 c -2.182812,1.52748 -3.96875,2.87355 -3.96875,2.99155 -2e-6,0.11799 1.105432,0.58797 2.456696,1.04438 3.77263,1.27424 5.900515,2.69599 7.357173,4.91546 1.914068,2.91642 2.916397,6.30078 2.98173,10.06812 l 0.0553,3.19257 -1.511536,0.33848 c -6.87656,1.54012 -9.343385,2.3414 -12.662275,4.11189 -6.815089,3.93444 -8.657277,5.03361 -9.022707,5.44463 -0.07702,0.0699 -0.284534,0.90189 -0.46147,1.84899 -0.427066,2.28597 0.07601,3.50261 1.735811,4.19612 1.212999,0.50683 1.451015,0.49213 2.742986,-0.1695 2.267699,-1.16131 7.301952,-4.98313 7.066235,-5.36453 -0.118584,-0.19187 -0.511924,-0.34881 -0.87385,-0.34881 -1.585317,0 -2.136436,-2.04077 -0.714685,-2.64635 1.226783,-0.52255 10.747566,-2.64532 11.864393,-2.64532 0.803884,0 0.90469,0.12525 0.681096,0.85008 -0.380209,1.23254 -1.077566,2.53552 -3.449402,6.44457 -2.459966,4.05429 -5.61885,10.22874 -5.990333,11.70884 -0.142087,0.56612 -0.112305,1.02763 0.06614,1.02578 0.178451,-0.002 2.237534,-0.92789 4.575432,-2.05776 3.344654,-1.61641 4.344961,-2.28058 4.692737,-3.11505 1.524074,-3.65691 4.018619,-8.52858 6.601148,-12.89121 l 2.976047,-5.02759 3.136757,-1.25936 c 5.269108,-2.11547 17.560793,-8.69806 16.792983,-15.8984 -0.01779,-0.54972 0.0301,3.46138 0.02709,-0.0586 -0.0033,-3.69492 -0.286908,-3.9621 -1.302956,-5.73348 -0.670753,-1.44344 -2.603334,-2.83701 -3.06152,-3.10332 -0.57283,-0.49073 -3.387831,-1.27419 -3.831254,-1.24729 z m -13.806108,5.77193 c 0.551722,-0.25711 6.10636,-1.10713 6.990917,-0.78892 3.82518,0.91799 2.980715,0.69031 4.240759,1.39856 4.759921,2.67547 2.780747,7.27914 1.481353,10.59053 -1.463601,2.01394 -2.49644,3.48301 -6.085881,5.2372 -1.547755,0.7564 -3.029434,0.97204 -3.092833,0.97204 -0.334145,0 -0.505958,-1.68722 -0.485241,-4.76974 0.02506,-3.72516 -0.621247,-6.60019 -2.171443,-9.65936 -1.241597,-2.45017 -1.56229,-3.00235 0.538099,-3.37961 z"
         style="fill:#550022;stroke-width:0.37797621"
         id="path3903" />
      <path
         inkscape:connector-curvature="0"
         id="path3905"
         d="m 84.497603,150.81044 c -0.58126,-0.31516 -1.23363,-1.03123 -1.4497,-1.59126 -0.21608,-0.56004 -0.52635,-4.33499 -0.68951,-8.38878 -0.27005,-6.70985 -0.38574,-7.58813 -1.29062,-9.79805 -0.54668,-1.33514 -0.99398,-2.61241 -0.99398,-2.8384 0,-0.47256 0.39829,-0.73841 4.53086,-3.0243 4.50062,-2.48946 4.26655,-2.50012 5.48433,0.24961 0.96707,2.18362 1.07597,2.92347 1.37824,9.36352 0.18051,3.84591 0.41906,7.54046 0.5301,8.21012 0.36262,2.18684 2.74671,3.01563 5.1298,1.78329 2.16546,-1.1198 1.99783,-0.29768 -0.24846,1.21854 -7.71847,5.20988 -10.01013,6.10124 -12.38106,4.81571 z"
         style="fill:#550022;stroke-width:0.37797621" />
      <path
         inkscape:connector-curvature="0"
         d="m 111.38992,97.578645 c -0.28999,0.0192 -0.64852,0.221 -1.15135,0.49661 -5.65736,3.100985 -7.28276,4.143925 -7.28276,4.673615 0,0.32706 0.68051,2.97516 1.51206,5.88492 l 1.51153,5.29063 0.002,11.52901 c 0.001,6.34088 0.1105,13.16403 0.24288,15.1629 l 0.24081,3.6344 4.47414,-2.31148 4.47467,-2.31097 0.008,-7.44813 0.007,-7.44812 1.31361,-0.24598 c 0.95238,-0.17867 1.65373,-0.048 2.55075,0.47594 1.90039,1.10989 5.35066,5.47827 7.28431,9.22217 0.95841,1.85566 2.16289,3.64939 2.67632,3.98581 1.51818,0.99474 5.80784,0.54505 8.9054,-0.93328 2.24261,-1.0703 5.23999,-3.67385 5.23999,-4.55166 0,-0.17953 -1.14803,-0.24632 -2.55126,-0.14831 -2.31982,0.16203 -2.624,0.0973 -3.34967,-0.7121 -0.43895,-0.48957 -0.9875,-1.45627 -1.21905,-2.14819 -0.65153,-1.94693 -3.69463,-6.29685 -6.33656,-9.05836 -1.31505,-1.37457 -2.35427,-2.51774 -2.30994,-2.54042 0.0443,-0.0227 1.20886,-0.83316 2.58796,-1.80092 3.99591,-2.80406 4.33052,-3.35547 4.64623,-7.65638 0.16049,-2.1864 0.12503,-3.81994 -0.0868,-4.0318 -0.45976,-0.45976 -8.58192,3.58227 -8.9085,4.43333 -0.13066,0.34049 -0.25757,1.66791 -0.28215,2.9502 -0.0816,4.25593 -0.17033,4.40867 -3.55017,6.10557 -1.66241,0.83465 -3.69933,1.98527 -4.52634,2.55695 -0.82701,0.57169 -1.63406,1.03973 -1.79369,1.03973 -0.15963,0 -0.29142,-1.82853 -0.29301,-4.06332 -0.004,-5.57383 -0.51252,-9.52423 -1.9022,-14.77635 -1.10085,-4.160505 -1.39314,-5.304995 -2.13424,-5.256015 z"
         style="fill:#550022;stroke-width:0.37797621"
         id="path3907" />
      <path
         inkscape:connector-curvature="0"
         d="m 32.827445,113.88463 c -0.07763,0.0636 -0.155861,0.12646 -0.233061,0.19068 0.05046,-0.019 0.08944,-0.035 0.13901,-0.0537 0.02397,-0.0343 0.06894,-0.10087 0.09405,-0.13694 z"
         style="fill:#800066;stroke-width:0.37797621"
         id="path3909" />
      <path
         inkscape:connector-curvature="0"
         d="m 149.07194,96.642778 c 0.55743,0.90982 1.22144,1.750399 1.75631,2.673199 0.42497,0.755363 0.62749,1.591573 0.90211,2.403133 0.26339,0.65463 0.35483,1.3539 0.56357,2.02445 0.21461,0.66724 0.25374,1.36674 0.43337,2.0418 0.13538,0.66926 0.29453,1.32534 0.47817,1.98285 0.10671,0.67895 0.33703,1.32556 0.49118,1.9934 0.10914,0.67356 0.33867,1.32172 0.56498,1.96348 0.27403,0.76437 0.53365,1.53404 0.79539,2.30393 0.24197,0.75311 0.56133,1.46656 0.73099,2.24254 0.23055,0.78258 0.39343,1.57641 0.48691,2.38633 0,0 -5.38888,2.81719 -5.38888,2.81719 v 0 c -0.0746,-0.79294 -0.21187,-1.57402 -0.46588,-2.3314 -0.14149,-0.75901 -0.45406,-1.44824 -0.68244,-2.18145 -0.25954,-0.76704 -0.53314,-1.52778 -0.80237,-2.28971 -0.23805,-0.66266 -0.49911,-1.32898 -0.60648,-2.02735 -0.13885,-0.66227 -0.3907,-1.29208 -0.47833,-1.96535 -0.17764,-0.66017 -0.3666,-1.30859 -0.47897,-1.98425 -0.18503,-0.66898 -0.24365,-1.35059 -0.42288,-2.02072 -0.21061,-0.66773 -0.30718,-1.35665 -0.54841,-2.01551 -0.26596,-0.77526 -0.42735,-1.5853 -0.82982,-2.3124 -0.50308,-0.90388 -1.12383,-1.74154 -1.73382,-2.57512 0,0 5.2353,-3.129042 5.2353,-3.129042 z"
         id="path4075"
         style="fill:#d40055;stroke-width:0.26458332" />
      <path
         inkscape:connector-curvature="0"
         d="m 155.52266,113.57324 c 0.12644,1.1559 0.23955,2.31267 0.3117,3.4733 0.14571,0.75198 0.23512,1.5225 0.42114,2.26577 0.23928,0.68741 0.34849,1.40204 0.41248,2.12385 -0.073,0.25298 0.6174,1.89554 0.16908,0.96184 -6.75861,3.82444 -4.72435,4.40711 -5.2772,1.15215 -0.22478,-0.81024 -0.41829,-1.62806 -0.65356,-2.43536 -0.23729,-0.77177 -0.28692,-1.57804 -0.48873,-2.3571 -0.19299,-0.68364 -0.23095,-1.39199 -0.41156,-2.07757 -0.028,-0.11144 -0.0534,-0.22352 -0.0839,-0.3343 -0.17936,-0.65253 -0.0613,0.0602 0.0394,0.0115 5.21838,-2.52228 5.40936,-4.88427 5.14515,-2.59813 -0.0501,0.7648 -0.0388,1.53214 -0.0367,2.29816 -0.0424,0.75809 0.0201,1.49166 0.16976,2.23267 0.15878,0.75792 0.20277,1.53154 0.23131,2.30325 0.0223,0.81898 0.02,1.63837 0.0197,2.45758 0.0652,2.48378 0.88566,0.45646 -5.4345,3.0618 -0.0906,0.0374 0.003,-0.19605 0.004,-0.29408 0.001,-0.11175 0.002,-0.2235 0.003,-0.33526 0.006,-0.79304 0.006,-1.58611 0.007,-2.37918 2.1e-4,-0.82649 4e-5,-1.65298 -4e-5,-2.47947 0.0464,-0.81798 -0.0275,-1.61697 -0.16223,-2.42182 -0.20871,-0.65314 -0.39065,-1.31299 -0.64183,-1.95119 -0.19824,-0.65066 -0.36934,-1.30696 -0.55936,-1.961 -0.18746,-0.69647 -0.1944,-1.41747 -0.35978,-2.11769 -0.026,-0.11268 -0.0521,-0.22536 -0.0781,-0.33804 0,0 5.36593,-2.88774 5.36593,-2.88774 v 0 c 0.0249,0.11009 0.0497,0.22019 0.0746,0.33028 0.17355,0.69431 0.20942,1.39587 0.34992,2.09642 0.17727,0.63818 0.36855,1.26755 0.53171,1.90865 0.26604,0.6791 0.45523,1.37853 0.68687,2.07057 0.14108,0.83565 0.27795,1.65882 0.20972,2.51126 -9e-5,0.82652 -2.6e-4,1.65304 -1.4e-4,2.47957 2.6e-4,0.79058 2.6e-4,1.58117 0.007,2.37173 0.001,0.11042 0.002,0.22084 0.004,0.33125 0.001,0.0962 0.0873,0.23879 0.005,0.28864 -6.57714,3.98277 -5.49369,4.98505 -5.43065,2.47537 7.9e-4,-0.81281 0.003,-1.62572 -0.0127,-2.4384 -0.0209,-0.73906 -0.0492,-1.48121 -0.19234,-2.20875 -0.15832,-0.77912 -0.27728,-1.54343 -0.21476,-2.34371 -0.004,-0.77704 -0.0131,-1.5542 -5.3e-4,-2.33119 0.0873,-2.67568 5.41811,-5.86222 5.70958,-2.71771 0.18885,0.68854 0.24699,1.38877 0.41021,2.08328 0.20473,0.77695 0.2618,1.57189 0.4677,2.34913 0.24163,0.8287 0.43539,1.66751 0.6903,2.49279 0.6054,3.41643 -5.3e-4,2.4758 -5.0646,5.32713 -0.38573,-0.52605 -0.45267,-1.15197 -0.59868,-1.78101 -0.0487,-0.68707 -0.13155,-1.37055 -0.36686,-2.02282 -0.21959,-0.7795 -0.27427,-1.60362 -0.44752,-2.39524 -0.0496,-1.14026 -0.12288,-2.28255 -0.31902,-3.40844 0,0 5.38885,-2.84279 5.38885,-2.84279 z"
         id="path4077"
         style="fill:#d40055;stroke-width:0.26458332" />
      <path
         inkscape:transform-center-y="0.39473477"
         inkscape:transform-center-x="0.3586282"
         d="m 88.164369,121.91762 -5.116849,0.0844 -3.013444,4.13623 -1.661465,-4.84033 -4.864998,-1.58779 4.090007,-3.07589 0.0067,-5.11754 4.189229,2.93932 4.869144,-1.57502 -1.500921,4.89249 z"
         inkscape:randomized="0"
         inkscape:rounded="0"
         inkscape:flatsided="false"
         sodipodi:arg2="1.0919661"
         sodipodi:arg1="0.46364761"
         sodipodi:r2="4.0215659"
         sodipodi:r1="7.7924185"
         sodipodi:cy="118.43275"
         sodipodi:cx="81.194618"
         sodipodi:sides="5"
         id="path4104"
         style="fill:#d40055;stroke-width:0.26458332"
         sodipodi:type="star" />
    </g>
  </g>
</svg>
